<svg id="Capa_1" data-name="Capa 1" xmlns="http://www.w3.org/2000/svg" viewBox="0 0 512 512"><defs><style>.cls-1{fill:#facd00;}</style></defs><title>logo_icon-gold</title><path class="cls-1" d="M324.4,341.35h0a8.54,8.54,0,1,0,0,17.07h0a8.54,8.54,0,0,1,8.53,8.52,8.53,8.53,0,0,0,8.53,8.53h0a8.55,8.55,0,0,0,8.53-8.55A25.63,25.63,0,0,0,324.4,341.35Z"/><path class="cls-1" d="M221.88,375.48h17.06a8.54,8.54,0,0,0,0-17.07h0l-17.06,0a8.53,8.53,0,1,0,0,17.06Z"/><path class="cls-1" d="M225.23,340l16,5.82a8.53,8.53,0,1,0,5.83-16l-16-5.82a8.53,8.53,0,0,0-5.82,16Z"/><path class="cls-1" d="M249.71,389.66a8.5,8.5,0,0,0-8.4-1.47l-16,5.85a8.53,8.53,0,1,0,5.85,16l16-5.85a8.53,8.53,0,0,0,2.55-14.56Z"/><path class="cls-1" d="M426.67,358.38h0l-17.07,0a8.54,8.54,0,0,0,0,17.07h0l17.06,0a8.54,8.54,0,0,0,0-17.07Z"/><path class="cls-1" d="M404.56,346.23h0a8.52,8.52,0,0,0,2.92-.52l16-5.85a8.53,8.53,0,1,0-5.85-16l-16,5.85a8.54,8.54,0,0,0,2.93,16.55Z"/><path class="cls-1" d="M423.56,393.87l-16-5.83a8.53,8.53,0,0,0-5.82,16l16,5.83a8.53,8.53,0,0,0,5.82-16Z"/><path class="cls-1" d="M176.35,34.2a59.73,59.73,0,0,0-56.88,59.67,8.53,8.53,0,0,0,17.06,0A42.55,42.55,0,0,1,152.3,60.74a43.15,43.15,0,0,1,36.17-8.57,42.7,42.7,0,0,1-3.15,83.93,17.11,17.11,0,0,0-14.65,16.83v9.2a8.53,8.53,0,1,0,17.06,0V153A59.74,59.74,0,0,0,176.35,34.2Z"/><path class="cls-1" d="M185.26,190.21a9.82,9.82,0,0,0-2.82-1.8,8.55,8.55,0,0,0-6.48,0,8.65,8.65,0,0,0-2.82,1.8,9.88,9.88,0,0,0-1.79,2.81,8.45,8.45,0,0,0-.68,3.25,10.76,10.76,0,0,0,.17,1.7,5.27,5.27,0,0,0,.51,1.54,6.17,6.17,0,0,0,.77,1.54l1,1.27a9,9,0,0,0,6.06,2.48,7.1,7.1,0,0,0,3.24-.68,10,10,0,0,0,2.82-1.8l1-1.27a6.93,6.93,0,0,0,.77-1.54,5.36,5.36,0,0,0,.51-1.54,10.76,10.76,0,0,0,.17-1.7,8.45,8.45,0,0,0-.68-3.25A9.88,9.88,0,0,0,185.26,190.21Z"/><path class="cls-1" d="M375.47,204.8V34.13A34.17,34.17,0,0,0,341.33,0H34.13A34.17,34.17,0,0,0,0,34.13V204.8a34.17,34.17,0,0,0,34.13,34.13h8.54v51.19A17.06,17.06,0,0,0,71.8,302.18a6.75,6.75,0,0,0,.57-.63l51.14-62.62H341.33A34.17,34.17,0,0,0,375.47,204.8Zm-256,17.07c-.15,0-.27.07-.41.08a17.23,17.23,0,0,0-3.22.8,7.67,7.67,0,0,0-1.26.84,8.57,8.57,0,0,0-1.4,1.15c-.09.11-.23.15-.32.26L59.73,290.05V230.4a8.53,8.53,0,0,0-8.53-8.53H34.13A17.08,17.08,0,0,1,17.07,204.8V34.13A17.08,17.08,0,0,1,34.13,17.07h307.2A17.08,17.08,0,0,1,358.4,34.13V204.8a17.09,17.09,0,0,1-17.07,17.07Z"/><path class="cls-1" d="M477.87,273.07h-8.54V221.88a17.06,17.06,0,0,0-29.13-12.06,6.75,6.75,0,0,0-.57.63l-51.14,62.62H170.67a34.18,34.18,0,0,0-34.14,34.13V477.87A34.18,34.18,0,0,0,170.67,512h307.2A34.17,34.17,0,0,0,512,477.87V307.2A34.17,34.17,0,0,0,477.87,273.07Zm17.06,204.8a17.08,17.08,0,0,1-17.06,17.06H170.67a17.08,17.08,0,0,1-17.07-17.06V307.2a17.09,17.09,0,0,1,17.07-17.07H392.53a8.23,8.23,0,0,0,3.46-.76,7.38,7.38,0,0,0,.74-.5,8.38,8.38,0,0,0,2.11-1.64c.09-.1.22-.13.3-.23L452.27,222V281.6a8.53,8.53,0,0,0,8.53,8.53h17.07a17.08,17.08,0,0,1,17.06,17.07V477.87Z"/><path class="cls-1" d="M331.45,307.63a59.71,59.71,0,0,0-44.52,105.89,8.35,8.35,0,0,1,3.2,6.57v6.58a17,17,0,0,0,8.53,14.69v10.92A25.7,25.7,0,0,0,309.32,473a25.43,25.43,0,0,0,14.93,4.85,26.69,26.69,0,0,0,8.4-1.38,25.94,25.94,0,0,0,17.23-25.09v-10a17,17,0,0,0,8.53-14.69v-6.55a8.76,8.76,0,0,1,3.42-6.78,59.32,59.32,0,0,0,21.42-56A60.33,60.33,0,0,0,331.45,307.63Zm-4.16,152.65a8.62,8.62,0,0,1-11.56-8v-8.53h17.09v7.68A9.2,9.2,0,0,1,327.29,460.28Zm23.81-60.22a25.81,25.81,0,0,0-9.77,20.06v6.52h0l-34.12,0v-6.58a25.42,25.42,0,0,0-9.61-19.9,42.66,42.66,0,0,1,26.62-75.92,46.07,46.07,0,0,1,5.25.3A43,43,0,0,1,366.39,360,42.48,42.48,0,0,1,351.1,400.06Z"/></svg>